<svg width="30" height="21" viewBox="0 0 30 21" fill="none" xmlns="http://www.w3.org/2000/svg">
<g clip-path="url(#clip0)">
<path d="M28.4043 15H22.5859V13.8867L25.3457 10.9219C25.5605 10.6875 25.7422 10.4746 25.8906 10.2832C26.0391 10.0918 26.1582 9.91797 26.248 9.76172C26.3418 9.60156 26.4082 9.45312 26.4473 9.31641C26.4902 9.17969 26.5117 9.04688 26.5117 8.91797C26.5117 8.72656 26.4844 8.55664 26.4297 8.4082C26.375 8.25977 26.2969 8.13477 26.1953 8.0332C26.0977 7.92773 25.9785 7.84766 25.8379 7.79297C25.7012 7.73828 25.5488 7.71094 25.3809 7.71094C24.9316 7.71094 24.5957 7.83594 24.373 8.08594C24.1543 8.33594 24.0449 8.68555 24.0449 9.13477H22.4102C22.4102 8.75586 22.4824 8.39844 22.627 8.0625C22.7715 7.72266 22.9746 7.42578 23.2363 7.17188C23.502 6.91797 23.8203 6.71875 24.1914 6.57422C24.5664 6.42578 24.9805 6.35156 25.4336 6.35156C25.8672 6.35156 26.25 6.41211 26.582 6.5332C26.918 6.6543 27.1973 6.82422 27.4199 7.04297C27.6465 7.26172 27.8184 7.52539 27.9355 7.83398C28.0527 8.13867 28.1113 8.47656 28.1113 8.84766C28.1113 9.12891 28.0664 9.39844 27.9766 9.65625C27.8906 9.91016 27.7656 10.1621 27.6016 10.4121C27.4414 10.6621 27.248 10.918 27.0215 11.1797C26.7949 11.4375 26.543 11.709 26.2656 11.9941L24.6602 13.6934H28.4043V15Z" fill="black"/>
<rect x="0.5" y="16.5" width="17" height="1" stroke="black"/>
<rect x="8.5" y="0.5" width="1" height="2" stroke="black"/>
<path fill-rule="evenodd" clip-rule="evenodd" d="M2.14286 17C2.14286 17 1 3 9 3C17 3 15.8571 17 15.8571 17H2.14286Z" stroke="black" stroke-width="2"/>
<path fill-rule="evenodd" clip-rule="evenodd" d="M5.9231 17C5.9231 17 6.33335 21 9.00002 21C11.6667 21 12.0769 17 12.0769 17H5.9231Z" stroke="black" stroke-width="2"/>
</g>
<defs>
<clipPath id="clip0">
<rect width="30" height="21" fill="white"/>
</clipPath>
</defs>
</svg>
